<svg width="166" height="166" viewBox="0 0 166 166" fill="none" xmlns="http://www.w3.org/2000/svg">
<path d="M99.319 126.986V110.018C99.319 106.416 98.2743 104.615 96.1849 104.615C94.9601 104.615 93.7713 105.191 92.6185 106.344V130.552C93.7713 131.705 94.9601 132.281 96.1849 132.281C98.2743 132.281 99.319 130.516 99.319 126.986ZM119.204 113.801H126.337V110.126C126.337 106.452 125.148 104.615 122.771 104.615C120.393 104.615 119.204 106.452 119.204 110.126V113.801ZM57.4948 85.0534V92.6185H48.849V138.333H40.8516V92.6185H32.4219V85.0534H57.4948ZM79.2174 98.6706V138.333H71.9766V134.01C69.1667 137.253 66.4288 138.874 63.763 138.874C61.3854 138.874 59.8724 137.865 59.224 135.848C58.7917 134.623 58.5755 132.678 58.5755 130.012V98.6706H65.7083V127.85C65.7083 129.579 65.7444 130.516 65.8164 130.66C65.8885 131.741 66.4288 132.281 67.4375 132.281C68.8785 132.281 70.3915 131.164 71.9766 128.931V98.6706H79.2174ZM106.452 110.667V126.445C106.452 130.192 106.2 132.822 105.695 134.335C104.831 137.361 102.921 138.874 99.9674 138.874C97.4457 138.874 94.9961 137.397 92.6185 134.443V138.333H85.3776V85.0534H92.6185V102.453C94.924 99.5712 97.3737 98.1302 99.9674 98.1302C102.921 98.1302 104.831 99.6432 105.695 102.669C106.2 104.182 106.452 106.848 106.452 110.667ZM133.578 124.608V125.581C133.578 127.67 133.506 129.219 133.362 130.228C133.146 131.813 132.605 133.254 131.741 134.551C129.796 137.433 126.914 138.874 123.095 138.874C119.349 138.874 116.431 137.505 114.341 134.767C112.828 132.822 112.072 129.724 112.072 125.473V111.531C112.072 107.28 112.792 104.182 114.233 102.237C116.322 99.4991 119.204 98.1302 122.879 98.1302C126.553 98.1302 129.363 99.4991 131.309 102.237C132.822 104.326 133.578 107.424 133.578 111.531V119.745H119.204V126.77C119.204 130.444 120.429 132.281 122.879 132.281C124.608 132.281 125.689 131.345 126.121 129.471C126.121 129.399 126.139 129.147 126.175 128.715C126.211 128.283 126.229 127.688 126.229 126.932V124.608H133.578ZM84.8372 35.556V52.4154C84.8372 56.0898 83.6845 57.9271 81.3789 57.9271C79.0734 57.9271 77.9206 56.0898 77.9206 52.4154V35.556C77.9206 31.8095 79.0734 29.9362 81.3789 29.9362C83.6845 29.9362 84.8372 31.8095 84.8372 35.556ZM142.44 112.612C142.44 99.8594 141.756 90.4931 140.387 84.513C139.666 81.3429 138.117 78.6951 135.74 76.5697C133.362 74.4442 130.624 73.2014 127.526 72.8411C117.727 71.7604 102.885 71.22 83 71.22C63.1866 71.22 48.3806 71.7604 38.582 72.8411C35.4119 73.2014 32.656 74.4442 30.3145 76.5697C27.9729 78.6951 26.4418 81.3429 25.7214 84.513C24.2804 90.7812 23.5599 100.148 23.5599 112.612C23.5599 125.293 24.2804 134.659 25.7214 140.711C26.4418 143.809 27.9729 146.439 30.3145 148.6C32.656 150.762 35.3759 152.023 38.474 152.383C48.3446 153.464 63.1866 154.004 83 154.004C102.813 154.004 117.655 153.464 127.526 152.383C130.624 152.023 133.344 150.762 135.686 148.6C138.027 146.439 139.558 143.809 140.279 140.711C141.72 134.659 142.44 125.293 142.44 112.612ZM60.8451 42.2565L70.5716 10.2669H62.4661L56.9544 31.3411L51.2266 10.2669H42.7969C43.3012 11.924 44.1298 14.4097 45.2826 17.724L47.8763 25.181C50.398 32.602 52.0551 38.2938 52.8477 42.2565V63.9792H60.8451V42.2565ZM92.0781 51.0104V36.9609C92.0781 32.7821 91.3216 29.648 89.8086 27.5586C87.7192 24.8207 84.9093 23.4518 81.3789 23.4518C77.7044 23.4518 74.8945 24.8207 72.9492 27.5586C71.4362 29.648 70.6797 32.7821 70.6797 36.9609V51.0104C70.6797 55.1892 71.4362 58.3233 72.9492 60.4128C74.8945 63.1506 77.7044 64.5195 81.3789 64.5195C84.9093 64.5195 87.7192 63.1506 89.8086 60.4128C91.3216 58.4674 92.0781 55.3333 92.0781 51.0104ZM111.639 63.9792H118.88V23.9922H111.639V54.5768C110.054 56.8103 108.541 57.9271 107.1 57.9271C106.02 57.9271 105.443 57.3507 105.371 56.1979C105.299 56.0538 105.263 55.1172 105.263 53.388V23.9922H98.0221V55.6576C98.0221 58.3233 98.2383 60.3047 98.6706 61.6016C99.4631 63.5469 101.012 64.5195 103.318 64.5195C105.911 64.5195 108.685 62.8984 111.639 59.6562V63.9792ZM166 31.125V134.875C166 143.449 162.956 150.78 156.868 156.868C150.78 162.956 143.449 166 134.875 166H31.125C22.5512 166 15.2203 162.956 9.13216 156.868C3.04405 150.78 0 143.449 0 134.875V31.125C0 22.5512 3.04405 15.2203 9.13216 9.13216C15.2203 3.04405 22.5512 0 31.125 0H134.875C143.449 0 150.78 3.04405 156.868 9.13216C162.956 15.2203 166 22.5512 166 31.125Z" fill="#3C3F70"/>
</svg>
