<svg width="166" height="166" viewBox="0 0 166 166" fill="none" xmlns="http://www.w3.org/2000/svg">
<g clip-path="url(#clip0_879_65)">
<path d="M25.6133 138.982H50.5781V63.9792H25.6133V138.982ZM52.1992 40.8516C52.1272 37.105 50.8303 34.0069 48.3086 31.5573C45.7869 29.1076 42.4366 27.8828 38.2578 27.8828C34.079 27.8828 30.6747 29.1076 28.0449 31.5573C25.4151 34.0069 24.1003 37.105 24.1003 40.8516C24.1003 44.526 25.3791 47.6061 27.9368 50.0918C30.4946 52.5775 33.8268 53.8203 37.9336 53.8203H38.0417C42.2925 53.8203 45.7148 52.5775 48.3086 50.0918C50.9023 47.6061 52.1992 44.526 52.1992 40.8516ZM115.422 138.982H140.387V95.9687C140.387 84.8733 137.757 76.4796 132.497 70.7878C127.238 65.0959 120.285 62.25 111.639 62.25C101.841 62.25 94.3116 66.4648 89.0521 74.8945H89.2682V63.9792H64.3034C64.5195 68.7344 64.5195 93.7352 64.3034 138.982H89.2682V97.0495C89.2682 94.3116 89.5204 92.2943 90.0247 90.9974C91.1055 88.4757 92.7266 86.3322 94.888 84.5671C97.0495 82.8019 99.7153 81.9193 102.885 81.9193C111.243 81.9193 115.422 87.5751 115.422 98.8867V138.982ZM166 31.125V134.875C166 143.449 162.956 150.78 156.868 156.868C150.78 162.956 143.449 166 134.875 166H31.125C22.5512 166 15.2203 162.956 9.13216 156.868C3.04405 150.78 0 143.449 0 134.875V31.125C0 22.5512 3.04405 15.2203 9.13216 9.13216C15.2203 3.04405 22.5512 0 31.125 0H134.875C143.449 0 150.78 3.04405 156.868 9.13216C162.956 15.2203 166 22.5512 166 31.125Z" fill="#DDDDF5"/>
</g>
<defs>
<clipPath id="clip0_879_65">
<rect width="166" height="166" fill="white"/>
</clipPath>
</defs>
</svg>
