<svg width="166" height="166" viewBox="0 0 166 166" fill="none" xmlns="http://www.w3.org/2000/svg">
<path d="M156.869 9.13129C150.776 3.03823 143.445 -0.0055316 134.876 7.54653e-06H31.1245C22.5499 7.54653e-06 15.2188 3.04377 9.1313 9.13129C3.03823 15.2244 -0.0055316 22.5554 7.54653e-06 31.1245V134.876C7.54653e-06 143.45 3.04377 150.781 9.1313 156.869C15.2244 162.962 22.5554 166.006 31.1245 166H55.3361C56.9148 166 58.1029 165.945 58.9006 165.834C59.8295 165.65 60.6679 165.155 61.2769 164.43C62.0689 163.599 62.465 162.394 62.465 160.815L62.4068 153.462C62.3736 148.776 62.357 145.065 62.357 142.328L59.8644 142.76C58.2857 143.049 56.2888 143.176 53.8738 143.143C51.3537 143.095 48.8418 142.842 46.3627 142.387C43.7213 141.908 41.2354 140.796 39.1175 139.146C36.8945 137.465 35.2366 135.146 34.3649 132.499L33.2848 130.007C32.3709 128.042 31.2274 126.193 29.8782 124.498C28.3272 122.482 26.7596 121.113 25.1754 120.393L24.4277 119.853C23.9084 119.477 23.4344 119.042 23.0152 118.557C22.6147 118.107 22.2868 117.596 22.0431 117.045C21.827 116.535 22.007 116.12 22.5831 115.799C23.1592 115.466 24.2061 115.303 25.7238 115.308L27.8841 115.641C29.3243 115.923 31.1051 116.785 33.2266 118.225C35.3708 119.687 37.1618 121.608 38.4694 123.85C40.1311 126.797 42.1308 129.048 44.4683 130.605C46.8114 132.156 49.171 132.931 51.5473 132.931C53.9236 132.931 55.9787 132.751 57.7124 132.391C59.3915 132.043 61.0232 131.497 62.573 130.763C63.2211 125.938 64.9853 122.227 67.8657 119.629C64.1303 119.26 60.428 118.61 56.7901 117.685C53.2402 116.711 49.8264 115.296 46.6286 113.472C43.2822 111.65 40.3264 109.189 37.9293 106.227C35.625 103.347 33.7334 99.5662 32.2545 94.8856C30.7811 90.1995 30.0444 84.7933 30.0444 78.667C30.0444 69.9539 32.8887 62.5315 38.5774 56.3996C35.9186 49.8468 36.1707 42.5019 39.3335 34.3649C41.4273 33.7113 44.5265 34.1959 48.631 35.8189C52.7355 37.4419 55.7432 38.8267 57.6542 39.9733C59.5653 41.1365 61.0968 42.1114 62.249 42.8979C69.0031 41.0147 75.9842 40.0697 82.9959 40.0896C90.1303 40.0896 97.0487 41.0257 103.751 42.8979L107.856 40.3056C111.013 38.4101 114.343 36.8188 117.801 35.553C121.618 34.1129 124.537 33.7168 126.559 34.3649C129.799 42.5074 130.084 49.8551 127.414 56.4079C133.109 62.5287 135.956 69.9511 135.956 78.6753C135.956 84.8016 135.216 90.2217 133.737 94.9355C132.264 99.6548 130.356 103.438 128.013 106.285C125.566 109.202 122.6 111.639 119.263 113.472C115.774 115.416 112.387 116.821 109.102 117.685C105.464 118.613 101.762 119.265 98.0263 119.637C101.765 122.878 103.637 127.99 103.643 134.975V160.815C103.643 162.034 103.823 163.023 104.183 163.782C104.351 164.146 104.591 164.473 104.888 164.742C105.185 165.012 105.533 165.219 105.911 165.352C106.703 165.64 107.407 165.817 108.022 165.884C108.637 165.961 109.517 165.997 110.664 165.992H134.876C143.45 165.992 150.781 162.948 156.869 156.86C162.956 150.773 166 143.442 166 134.867V31.1245C166 22.5499 162.962 15.2188 156.869 9.13129Z" fill="#DDDDF5"/>
</svg>
